name C:\Users\u0101727\Documents\MyRepositories\upper-imu-dc\Results\main_tracking\Case_48\ABD01_angularVelocities_bodyFrame.mot
datacolumns 4
datarows 105
range 4.56000000 5.60000000
endheader 
time	radius_imu_x	radius_imu_y	radius_imu_z	
          4.56000000	         -0.72243113	         -0.29045553	         -0.41802115	
          4.57000000	         -0.72125090	         -0.29854870	         -0.41260055	
          4.58000000	         -0.72005865	         -0.30367985	         -0.40699923	
          4.59000000	         -0.71889758	         -0.30586559	         -0.40125653	
          4.60000000	         -0.71779636	         -0.30525498	         -0.39541874	
          4.61000000	         -0.71676276	         -0.30212097	         -0.38953489	
          4.62000000	         -0.71577940	         -0.29685284	         -0.38365212	
          4.63000000	         -0.71480447	         -0.28994513	         -0.37781041	
          4.64000000	         -0.71377796	         -0.28197820	         -0.37203715	
          4.65000000	         -0.71263115	         -0.27358708	         -0.36634295	
          4.66000000	         -0.71129646	         -0.26541740	         -0.36072060	
          4.67000000	         -0.70971714	         -0.25806961	         -0.35514732	
          4.68000000	         -0.70785637	         -0.25203746	         -0.34958869	
          4.69000000	         -0.70570412	         -0.24765352	         -0.34400301	
          4.70000000	         -0.70327985	         -0.24505920	         -0.33834505	
          4.71000000	         -0.70063008	         -0.24421013	         -0.33256869	
          4.72000000	         -0.69782212	         -0.24491120	         -0.32662848	
          4.73000000	         -0.69493617	         -0.24686320	         -0.32048122	
          4.74000000	         -0.69205763	         -0.24970358	         -0.31408809	
          4.75000000	         -0.68927015	         -0.25303447	         -0.30741757	
          4.76000000	         -0.68664856	         -0.25644088	         -0.30044834	
          4.77000000	         -0.68425140	         -0.25950670	         -0.29317145	
          4.78000000	         -0.68211490	         -0.26183470	         -0.28559155	
          4.79000000	         -0.68025094	         -0.26307112	         -0.27772790	
          4.80000000	         -0.67864961	         -0.26293157	         -0.26961583	
          4.81000000	         -0.67728464	         -0.26122341	         -0.26130764	
          4.82000000	         -0.67612040	         -0.25786010	         -0.25287152	
          4.83000000	         -0.67511950	         -0.25286423	         -0.24438830	
          4.84000000	         -0.67425031	         -0.24635855	         -0.23594666	
          4.85000000	         -0.67349321	         -0.23854739	         -0.22763812	
          4.86000000	         -0.67284491	         -0.22969220	         -0.21955298	
          4.87000000	         -0.67232019	         -0.22008572	         -0.21177817	
          4.88000000	         -0.67195063	         -0.21002876	         -0.20439656	
          4.89000000	         -0.67177954	         -0.19981308	         -0.19748606	
          4.90000000	         -0.67185185	         -0.18971172	         -0.19111720	
          4.91000000	         -0.67219965	         -0.17997573	         -0.18534842	
          4.92000000	         -0.67282698	         -0.17083256	         -0.18021987	
          4.93000000	         -0.67369870	         -0.16248077	         -0.17574734	
          4.94000000	         -0.67473770	         -0.15507963	         -0.17191836	
          4.95000000	         -0.67583109	         -0.14873689	         -0.16869193	
          4.96000000	         -0.67684289	         -0.14349957	         -0.16600132	
          4.97000000	         -0.67762987	         -0.13935204	         -0.16375932	
          4.98000000	         -0.67805702	         -0.13622412	         -0.16186526	
          4.99000000	         -0.67801047	         -0.13400921	         -0.16021318	
          5.00000000	         -0.67740608	         -0.13258968	         -0.15870022	
          5.01000000	         -0.67619306	         -0.13186496	         -0.15723345	
          5.02000000	         -0.67435316	         -0.13177760	         -0.15573439	
          5.03000000	         -0.67189654	         -0.13233335	         -0.15414107	
          5.04000000	         -0.66885550	         -0.13361226	         -0.15240853	
          5.05000000	         -0.66527697	         -0.13576809	         -0.15050786	
          5.06000000	         -0.66121466	         -0.13901279	         -0.14842386	
          5.07000000	         -0.65672241	         -0.14358542	         -0.14615170	
          5.08000000	         -0.65184987	         -0.14971090	         -0.14369328	
          5.09000000	         -0.64664085	         -0.15756006	         -0.14105391	
          5.10000000	         -0.64113369	         -0.16722169	         -0.13823920	
          5.11000000	         -0.63536278	         -0.17869120	         -0.13525264	
          5.12000000	         -0.62936039	         -0.19187255	         -0.13209402	
          5.13000000	         -0.62315800	         -0.20658670	         -0.12875868	
          5.14000000	         -0.61678702	         -0.22258173	         -0.12523689	
          5.15000000	         -0.61027901	         -0.23954364	         -0.12151315	
          5.16000000	         -0.60366575	         -0.25711011	         -0.11756629	
          5.17000000	         -0.59697966	         -0.27488988	         -0.11337185	
          5.18000000	         -0.59025477	         -0.29248841	         -0.10890758	
          5.19000000	         -0.58352762	         -0.30953824	         -0.10416159	
          5.20000000	         -0.57683745	         -0.32572933	         -0.09914056	
          5.21000000	         -0.57022589	         -0.34083342	         -0.09387539	
          5.22000000	         -0.56373716	         -0.35471672	         -0.08842252	
          5.23000000	         -0.55741937	         -0.36733665	         -0.08286080	
          5.24000000	         -0.55132653	         -0.37872248	         -0.07728501	
          5.25000000	         -0.54551959	         -0.38894382	         -0.07179793	
          5.26000000	         -0.54006584	         -0.39807515	         -0.06650233	
          5.27000000	         -0.53503708	         -0.40616521	         -0.06149423	
          5.28000000	         -0.53050767	         -0.41321724	         -0.05685728	
          5.29000000	         -0.52655253	         -0.41918110	         -0.05265850	
          5.30000000	         -0.52324412	         -0.42395476	         -0.04894492	
          5.31000000	         -0.52064766	         -0.42739242	         -0.04574163	
          5.32000000	         -0.51881477	         -0.42931749	         -0.04305135	
          5.33000000	         -0.51777698	         -0.42954045	         -0.04085611	
          5.34000000	         -0.51754014	         -0.42788091	         -0.03912024	
          5.35000000	         -0.51808085	         -0.42419165	         -0.03779400	
          5.36000000	         -0.51934548	         -0.41838119	         -0.03681686	
          5.37000000	         -0.52125191	         -0.41043249	         -0.03612076	
          5.38000000	         -0.52369343	         -0.40041610	         -0.03563360	
          5.39000000	         -0.52654412	         -0.38849508	         -0.03528289	
          5.40000000	         -0.52966643	         -0.37491941	         -0.03499827	
          5.41000000	         -0.53292163	         -0.36000918	         -0.03471181	
          5.42000000	         -0.53618244	         -0.34412886	         -0.03435641	
          5.43000000	         -0.53934551	         -0.32765572	         -0.03386373	
          5.44000000	         -0.54234085	         -0.31094812	         -0.03316302	
          5.45000000	         -0.54513696	         -0.29432016	         -0.03218110	
          5.46000000	         -0.54773199	         -0.27802319	         -0.03084256	
          5.47000000	         -0.55013870	         -0.26223797	         -0.02906923	
          5.48000000	         -0.55238443	         -0.24708243	         -0.02678942	
          5.49000000	         -0.55451109	         -0.23262762	         -0.02394854	
          5.50000000	         -0.55656855	         -0.21891604	         -0.02051308	
          5.51000000	         -0.55861104	         -0.20598174	         -0.01647390	
          5.52000000	         -0.56069487	         -0.19386765	         -0.01184694	
          5.53000000	         -0.56287781	         -0.18263753	         -0.00667123	
          5.54000000	         -0.56521992	         -0.17238175	         -0.00100474	
          5.55000000	         -0.56778416	         -0.16321519	          0.00508127	
          5.56000000	         -0.57063478	         -0.15526779	          0.01150826	
          5.57000000	         -0.57383189	         -0.14866977	          0.01819577	
          5.58000000	         -0.57742292	         -0.14353566	          0.02506542	
          5.59000000	         -0.58143354	         -0.13995128	          0.03204254	
          5.60000000	         -0.58586020	         -0.13796612	          0.03905525	
